<?xml version="1.0" encoding="utf-8" ?><svg xmlns="http://www.w3.org/2000/svg" xmlns:xlink="http://www.w3.org/1999/xlink" width="1184" height="864" viewBox="0 0 1184 864"><defs><linearGradient id="gradient_0" gradientUnits="userSpaceOnUse" x1="337.55252" y1="908.61841" x2="675.75116" y2="-47.755684"><stop offset="0" stop-color="#202020"/><stop offset="1" stop-color="#5E5D5D"/></linearGradient></defs><path fill="url(#gradient_0)" d="M710.091 22.0436L839.681 22.1812L872.299 22.1804C877.709 22.1812 889.088 21.9812 893.947 22.9834C902.624 31.1341 901.692 50.3616 913.022 54.7305C913.976 55.0984 918.971 55.0422 920.249 55.0409L993.178 54.9651C1003.43 54.9774 1031.46 54.4324 1040.34 56.695C1068.4 60.6039 1093.77 75.4569 1110.93 98.0125C1111.13 98.2822 1111.34 98.5554 1111.53 98.832C1114.97 102.405 1118.57 108.116 1121.06 112.486C1125.62 121.017 1135.4 143.907 1135.86 153.012C1150.87 198.988 1153.91 237.449 1132.19 282.318C1131.84 283.044 1131.59 283.403 1131.14 284.054C1128.97 290.603 1119.5 304.853 1114.83 310.088C1110.1 317.015 1103.83 322.522 1097.98 328.161C1079.81 345.684 1055.04 357.561 1030.16 361.913C1016.57 364.291 987.683 363.559 972.256 363.59L867.449 363.719C864.841 358.271 852.604 331.852 849.635 328.207C845.653 330.814 839.734 357.671 837.536 363.3C836.308 366.443 831.953 381.487 832.398 384.298L833.302 385.419C839.571 386.044 847.584 385.534 854.092 385.652C869.97 385.94 887.004 385.062 902.785 385.71C919.412 385.232 938.849 385.595 955.494 385.908C959.296 386.002 966.265 386.125 969.763 386.947C981.799 389.776 1009.18 400.728 1016.58 410.219L1016.87 410.4C1024.42 416.121 1033.7 427.392 1039.11 435.258C1045.6 445.589 1056.61 464.919 1059.03 477.096C1062.56 488.136 1065.89 499.126 1068.82 510.398C1070.41 516.494 1074.07 526.506 1074.68 532.72C1077.38 560.162 1074.99 594.208 1062.63 619.239C1059.84 624.881 1052.24 637.304 1048.49 641.443C1034.56 666.137 996.371 689.879 969.541 698.011C961.547 700.434 933.842 699.586 924.087 699.614L852.372 699.796L813.088 699.93C808.431 699.951 797.579 700.294 793.31 699.922C787.625 700.19 763.879 698.531 761.061 701.944C756.499 707.468 737.916 771.497 734.546 784.064C732.288 792.483 729.705 806.911 725.633 814.233L612.17 814.304L580.848 814.323C573.858 814.325 565.869 814.553 559.014 813.544C550.995 812.364 542.747 800.582 540.629 793.415C541.482 785.212 545.403 771.293 547.382 762.701C551.566 744.49 555.647 726.254 559.624 707.996C562.219 696.063 565.398 682.956 566.714 670.936C556.893 670.027 542.577 670.447 532.378 670.484L474.283 670.74L414.252 670.919C403.497 670.966 392.778 670.966 382.028 671.435C373.569 671.805 370.389 676.16 365.371 682.364C357.234 692.427 349.515 702.8 341.733 713.131L291.233 780.307C283.209 791.003 273.974 804.259 265.672 814.292C253.275 814.81 237.8 814.43 225.059 814.469L153.521 814.792L99.7563 814.921C89.7695 814.953 77.395 815.317 67.566 814.707C61.3566 810.474 54.8662 802.302 50.8967 795.942C55.8515 787.238 68.1112 771.639 74.2875 763.417C94.1527 736.973 114.966 711.053 135.148 684.808L329.959 431.545C409.595 325.029 490.037 219.118 571.279 113.822C587.268 93.349 603.066 72.7276 618.672 51.9606C625.56 42.7908 632.418 32.98 639.606 24.1028C641.992 21.156 660.889 22.1526 665.325 22.1515C680.247 22.1938 695.169 22.1579 710.091 22.0436ZM614.052 502.579C616.263 498.175 619.154 483.825 620.396 478.345L629.18 440.04L650.704 348.255C655.405 328.378 660.822 307.189 664.761 287.256L664.697 284.737L663.894 284.342C660.575 286.152 631.193 330.551 625.994 337.57C612.776 355.407 599.37 373.104 585.779 390.659C574.392 405.344 506.556 490.109 503.984 499.365C503.748 500.212 503.617 501.081 503.509 501.952C507.576 504.057 557.266 503.013 565.987 503.046C576.351 503.084 603.697 503.637 614.052 502.579Z"/><defs><linearGradient id="gradient_1" gradientUnits="userSpaceOnUse" x1="778.42621" y1="679.97198" x2="1005.0091" y2="403.36761"><stop offset="0" stop-color="#C64C08"/><stop offset="1" stop-color="#F07112"/></linearGradient></defs><path fill="url(#gradient_1)" d="M833.302 385.419C839.571 386.044 847.584 385.534 854.092 385.652C869.97 385.94 887.004 385.062 902.785 385.71C919.412 385.232 938.849 385.595 955.494 385.908C959.296 386.002 966.265 386.125 969.763 386.947C981.799 389.776 1009.18 400.728 1016.58 410.219L1016.87 410.4C1024.42 416.121 1033.7 427.392 1039.11 435.258C1045.6 445.589 1056.61 464.919 1059.03 477.096C1062.56 488.136 1065.89 499.126 1068.82 510.398C1070.41 516.494 1074.07 526.506 1074.68 532.72C1077.38 560.162 1074.99 594.208 1062.63 619.239C1059.84 624.881 1052.24 637.304 1048.49 641.443C1034.56 666.137 996.371 689.879 969.541 698.011C961.547 700.434 933.842 699.586 924.087 699.614L852.372 699.796L813.088 699.93C808.431 699.951 797.579 700.294 793.31 699.922C792.038 699.805 782.007 699.491 781.762 699.178C772.899 687.859 769.162 677.138 759.237 666.226C758.667 660.427 763.024 646.989 764.625 640.62C768.645 624.489 772.749 608.38 776.936 592.292L818.321 428.838C819.77 423.006 826.873 389.402 829.671 387.293C830.591 387.021 832.56 386.662 833.576 386.446L833.302 385.419Z"/><defs><linearGradient id="gradient_2" gradientUnits="userSpaceOnUse" x1="902.32397" y1="705.53387" x2="907.77649" y2="610.52667"><stop offset="0" stop-color="#310C01"/><stop offset="1" stop-color="#5D1B00"/></linearGradient></defs><path fill="url(#gradient_2)" d="M1021.25 615.446C1025.21 621.35 1025.84 621.47 1030.49 626.021C1034.74 630.18 1047.58 635.515 1048.96 639.087L1048.49 641.443C1034.56 666.137 996.371 689.879 969.541 698.011C961.547 700.434 933.842 699.586 924.087 699.614L852.372 699.796L813.088 699.93C808.431 699.951 797.579 700.294 793.31 699.922C792.038 699.805 782.007 699.491 781.762 699.178C772.899 687.859 769.162 677.138 759.237 666.226C760.423 666.245 761.609 666.258 762.795 666.263C772.15 666.302 781.985 665.822 791.467 665.756L860.233 665.666C932.467 665.631 966.115 670.227 1021.25 615.446Z"/><defs><linearGradient id="gradient_3" gradientUnits="userSpaceOnUse" x1="1027.0919" y1="627.86713" x2="1085.9685" y2="500.60986"><stop offset="0" stop-color="#661E00"/><stop offset="1" stop-color="#BB4D0B"/></linearGradient></defs><path fill="url(#gradient_3)" d="M1059.03 477.096C1062.56 488.136 1065.89 499.126 1068.82 510.398C1070.41 516.494 1074.07 526.506 1074.68 532.72C1077.38 560.162 1074.99 594.208 1062.63 619.239C1059.84 624.881 1052.24 637.304 1048.49 641.443L1048.96 639.087C1047.58 635.515 1034.74 630.18 1030.49 626.021C1025.84 621.47 1025.21 621.35 1021.25 615.446C1022.36 614.193 1023.43 612.906 1024.46 611.586C1049.45 579.993 1066.52 536.739 1061.73 496.044C1061.18 491.847 1058.73 479.911 1059.03 477.096Z"/><path fill="#EC7A12" d="M833.302 385.419C839.571 386.044 847.584 385.534 854.092 385.652C869.97 385.94 887.004 385.062 902.785 385.71C919.412 385.232 938.849 385.595 955.494 385.908C956.881 386.456 958.314 387.064 959.739 387.471C956.889 387.456 955.527 388.504 952.931 389.008C942.843 390.964 921.399 388.377 910.283 388.375C902.549 388.374 834.37 390.941 831.342 388.483C830.198 387.554 831.775 388.569 830.227 387.621C830.043 387.508 829.856 387.402 829.671 387.293C830.591 387.021 832.56 386.662 833.576 386.446L833.302 385.419Z"/><path fill="#A0683D" d="M833.302 385.419C839.571 386.044 847.584 385.534 854.092 385.652C869.97 385.94 887.004 385.062 902.785 385.71C891.525 388.426 861.556 386.373 849.122 386.531C846.055 386.57 836.018 386.673 833.576 386.446L833.302 385.419Z"/><defs><linearGradient id="gradient_4" gradientUnits="userSpaceOnUse" x1="1046.8448" y1="468.46463" x2="1055.2479" y2="460.85742"><stop offset="0" stop-color="#D88B34"/><stop offset="1" stop-color="#CEA464"/></linearGradient></defs><path fill="url(#gradient_4)" d="M1035.02 434.271C1036.29 434.506 1037.98 434.731 1039.11 435.258C1045.6 445.589 1056.61 464.919 1059.03 477.096C1058.73 479.911 1061.18 491.847 1061.73 496.044L1060.92 495.915C1059.24 491.153 1060.32 487.196 1057.15 479.804L1056.77 483.073C1055.7 481.471 1053.15 471.421 1052.06 468.665C1046.83 455.396 1043 445.912 1035.02 434.271Z"/><path fill="#171717" d="M955.494 385.908C959.296 386.002 966.265 386.125 969.763 386.947C981.799 389.776 1009.18 400.728 1016.58 410.219C1014.24 409.618 1007.34 404.489 1004.59 402.749C993.753 395.901 972.365 388.101 959.739 387.471C958.314 387.064 956.881 386.456 955.494 385.908Z"/><path fill="#CC9E68" d="M1016.87 410.4C1024.42 416.121 1033.7 427.392 1039.11 435.258C1037.98 434.731 1036.29 434.506 1035.02 434.271C1029.31 426.777 1018.58 417.707 1016.87 410.4Z"/><path fill="#EC7A12" d="M825.07 512.735C825.107 512.579 825.144 512.423 825.181 512.268C827.8 457.508 880.591 410.177 935.697 423.593C991.35 437.141 1015.85 499.419 984.047 546.588C982.499 548.884 979.3 553.315 978.166 555.495C981.173 553.976 982.896 550.714 984.702 547.906C997.84 555.664 998.326 556.438 989.811 569.275C987.004 573.506 983.859 579.148 981.25 583.566C982.687 582.644 984.551 579.924 985.678 578.457C982.929 585.697 980.768 594.172 976.116 600.626C944.9 643.909 878.881 672.808 830.578 640.036C810.478 626.399 789.381 597.18 790.37 572.099C790.513 568.465 794.826 542.21 796.133 539.432C803.347 524.094 805.759 502.948 825.133 499.672C825.547 500.403 824.929 510.41 825.07 512.735Z"/><path fill="#983503" d="M985.678 578.457C982.929 585.697 980.768 594.172 976.116 600.626C944.9 643.909 878.881 672.808 830.578 640.036C810.478 626.399 789.381 597.18 790.37 572.099C790.513 568.465 794.826 542.21 796.133 539.432C803.347 524.094 805.759 502.948 825.133 499.672C825.547 500.403 824.929 510.41 825.07 512.735C825.154 529.835 828.406 540.699 836.438 555.82C838.465 559.202 840.125 561.959 842.432 565.183C846.135 569.05 849.834 572.469 854.206 575.592C873.374 589.252 897.214 594.659 920.397 590.605C942.235 586.931 965.235 573.644 978.166 555.495C981.173 553.976 982.896 550.714 984.702 547.906C997.84 555.664 998.326 556.438 989.811 569.275C987.004 573.506 983.859 579.148 981.25 583.566C982.687 582.644 984.551 579.924 985.678 578.457Z"/><path fill="#461000" d="M842.432 565.183C843.758 573.613 848.348 575.592 853.838 581.518C856.108 583.968 858.711 587.935 860.988 590.12C881.117 609.436 907.529 609.608 933.454 607.481C937.96 607.111 942.069 605.038 944.74 605.045C940.597 609.295 921.673 610.025 915.679 610.371C912.432 611.225 907.95 614.388 904.653 614.729C887.841 616.465 852.5 604.002 850.044 584.662C850.634 583.884 851.127 583.377 851.893 582.772C850.1 578.749 845.342 576.268 843.526 571.984C841.542 567.303 838.896 559.423 834.536 556.329C833.051 555.275 831.562 554.62 831.264 552.661L832.205 552.893C833.667 554.669 834.323 554.926 836.438 555.82C838.465 559.202 840.125 561.959 842.432 565.183Z"/><path fill="#7E2501" d="M948.048 606.042L948.447 606.826C945.605 609.16 928.457 616.114 924.41 617.501C927.665 618.235 928.961 616.632 932.822 616.766L933.165 617.437C931.636 618.3 930.473 619.516 929.149 620.59C926.17 623.005 913.678 628.382 910.217 626.446L911.128 625.296L911.061 624.829L911.317 625.033C909.576 624.6 906.963 626.587 902.643 626.897L902.125 625.943L904.064 624.996C901.273 624.812 897.083 624.654 894.591 623.717C895.827 623.069 897.984 624.036 900.375 623.807L900.698 623.158C898.4 622.329 897.169 622.944 895.693 621.99C897.133 620.981 900.574 622.39 901.282 622.147C904.743 620.965 908.505 618.319 912.269 618.731C913.935 618.914 913.985 619.032 914.56 617.597L913.36 617.301L913.137 616.656L914.224 615.979C923.205 616.526 940.137 610.343 948.048 606.042Z"/><defs><linearGradient id="gradient_5" gradientUnits="userSpaceOnUse" x1="866.80188" y1="334.23718" x2="1080.2622" y2="71.960152"><stop offset="0" stop-color="#C94506"/><stop offset="1" stop-color="#F59518"/></linearGradient></defs><path fill="url(#gradient_5)" d="M920.249 55.0409L993.178 54.9651C1003.43 54.9774 1031.46 54.4324 1040.34 56.695C1068.4 60.6039 1093.77 75.4569 1110.93 98.0125C1111.13 98.2822 1111.34 98.5554 1111.53 98.832C1114.97 102.405 1118.57 108.116 1121.06 112.486C1125.62 121.017 1135.4 143.907 1135.86 153.012C1150.87 198.988 1153.91 237.449 1132.19 282.318C1131.84 283.044 1131.59 283.403 1131.14 284.054C1128.97 290.603 1119.5 304.853 1114.83 310.088C1110.1 317.015 1103.83 322.522 1097.98 328.161C1079.81 345.684 1055.04 357.561 1030.16 361.913C1016.57 364.291 987.683 363.559 972.256 363.59L867.449 363.719C864.841 358.271 852.604 331.852 849.635 328.207C848.112 324.711 847.239 322.923 845.285 319.667C844.994 312.603 853.373 284.305 855.484 275.762L890.346 137.149C893.553 124.017 898.686 107.119 901.262 94.5308C904.153 84.4909 906.833 65.3038 913.368 57.2984C914.945 55.367 917.969 55.5068 920.328 55.5188L920.249 55.0409Z"/><defs><linearGradient id="gradient_6" gradientUnits="userSpaceOnUse" x1="979.68921" y1="288.19232" x2="984.99103" y2="364.32962"><stop offset="0" stop-color="#7F2500"/><stop offset="1" stop-color="#4D0D02"/></linearGradient></defs><path fill="url(#gradient_6)" d="M1011.88 318.623C1043.66 313.391 1065.24 301.328 1089.34 280.192C1095.07 282.87 1095.76 280.538 1100.99 286.884C1104.95 291.694 1109.78 296.364 1114.9 299.944C1115.59 305.214 1115.05 305.322 1114.83 310.088C1110.1 317.015 1103.83 322.522 1097.98 328.161C1079.81 345.684 1055.04 357.561 1030.16 361.913C1016.57 364.291 987.683 363.559 972.256 363.59L867.449 363.719C864.841 358.271 852.604 331.852 849.635 328.207C848.112 324.711 847.239 322.923 845.285 319.667C857.072 320.893 873.249 319.671 885.892 319.92C926.629 318.283 970.997 321.774 1011.88 318.623Z"/><path fill="#7E2501" d="M885.892 319.92C926.629 318.283 970.997 321.774 1011.88 318.623C1007.98 321.195 1007.06 319.129 1004.62 320.278C1002.72 321.178 1000.47 328.06 996.899 328.499C973.895 331.333 947.979 325.44 924.782 323.203C920.207 322.761 914.506 320.814 910.406 320.543C903.076 320.058 893.366 321.143 886.366 320.42L885.892 319.92Z"/><path fill="#983503" d="M1135.86 153.012C1150.87 198.988 1153.91 237.449 1132.19 282.318C1131.84 283.044 1131.59 283.403 1131.14 284.054C1128.97 290.603 1119.5 304.853 1114.83 310.088C1115.05 305.322 1115.59 305.214 1114.9 299.944C1109.78 296.364 1104.95 291.694 1100.99 286.884C1095.76 280.538 1095.07 282.87 1089.34 280.192C1093.95 275.454 1098.42 270.399 1102.86 265.483L1103.17 265.067C1124.86 235.753 1141.97 196.914 1136.47 159.805L1135.86 153.012Z"/><path fill="#7E2501" d="M1102.86 265.483C1102.14 270.293 1093.44 275.285 1094.55 277.126C1094.76 277.164 1094.96 277.201 1095.16 277.239C1104.18 277.882 1114.06 301.565 1122.4 295.977C1125.86 293.663 1128.66 284.678 1131.14 284.054C1128.97 290.603 1119.5 304.853 1114.83 310.088C1115.05 305.322 1115.59 305.214 1114.9 299.944C1109.78 296.364 1104.95 291.694 1100.99 286.884C1095.76 280.538 1095.07 282.87 1089.34 280.192C1093.95 275.454 1098.42 270.399 1102.86 265.483Z"/><path fill="#E39F43" d="M920.249 55.0409L993.178 54.9651C1003.43 54.9774 1031.46 54.4324 1040.34 56.695C1068.4 60.6039 1093.77 75.4569 1110.93 98.0125C1111.13 98.2822 1111.34 98.5554 1111.53 98.832C1110.75 98.7347 1109.38 98.5858 1108.8 98.0264C1099.08 88.6117 1090.12 77.7548 1077.35 72.2692L1078.25 73.055C1065.5 68.9488 1050.91 62.0902 1037.87 59.0556C1034.03 58.1629 1018.98 58.4363 1014.14 58.4427L967.093 58.3616C961.154 58.3405 947.73 58.6332 942.309 57.9475L941.7 57.8664C931.404 57.8662 929.657 56.4931 920.328 55.5188L920.249 55.0409Z"/><path fill="#CC9E68" d="M920.249 55.0409L993.178 54.9651C1003.43 54.9774 1031.46 54.4324 1040.34 56.695C1037.23 56.9021 1033.83 56.3819 1031.1 56.6631C1011.62 58.6658 992.153 57.5561 972.653 57.8095C963.043 57.9344 951.1 57.037 941.7 57.8664C931.404 57.8662 929.657 56.4931 920.328 55.5188L920.249 55.0409Z"/><path fill="#E39F43" d="M1121.06 112.486C1125.62 121.017 1135.4 143.907 1135.86 153.012L1136.47 159.805C1131.92 150.86 1129.32 142.888 1126.52 133.348C1124.24 125.582 1119.58 120.959 1121.06 112.486Z"/><defs><linearGradient id="gradient_7" gradientUnits="userSpaceOnUse" x1="955.65198" y1="241.19467" x2="1029.5059" y2="94.464127"><stop offset="0" stop-color="#EF7D0D"/><stop offset="1" stop-color="#F29F1C"/></linearGradient></defs><path fill="url(#gradient_7)" d="M909.358 177.201C911.352 149.756 918.72 128.249 940.227 109.738C958.128 94.2438 981.423 86.453 1005.04 88.0619C1026.22 89.5375 1045.95 99.3817 1059.86 115.423C1085.55 145.49 1079.7 186.848 1056.16 215.062C1054.33 217.256 1049.45 221.339 1048.4 223.435C1047.25 227.756 1042.63 227.145 1041.53 231.778C1039.66 239.611 1042.08 251.848 1039.48 259.105C1047.8 252.468 1052.33 248.235 1059.94 240.947C1058.15 245.629 1041.88 259.276 1037.39 262.284C1033.84 264.649 1030.08 266.689 1026.17 268.38C1023.08 269.744 1016.84 271.636 1014.97 273.793L1014.87 274.127L1014.27 274.346L1015.24 274.145L1015.47 275.032C1013.05 277.226 1013.74 274.79 1011.37 277.343C1012.92 277.373 1014.02 277.455 1015.57 277.627L1015.94 278.022C1012.61 281.874 1009.64 279.614 1007.06 280.4C1000.31 282.459 993.574 287.591 986.255 288.099C980.807 288.375 970.673 290.072 966.148 286.603C963.137 287.876 943.779 283.897 939.863 282.616C936.387 281.493 933.064 279.941 929.972 277.997C902.146 260.612 889.702 223.259 901.418 191.917C902.315 189.516 907.053 184.204 908.746 181.536C908.67 179.838 908.377 178.522 909.358 177.201Z"/><path fill="#7E2501" d="M909.358 177.201C909.28 194.326 917.935 213.223 929.968 225.298C944.781 240.167 964.955 248.442 985.938 248.258C1009.14 248.16 1031.46 239.294 1048.4 223.435C1047.25 227.756 1042.63 227.145 1041.53 231.778C1039.66 239.611 1042.08 251.848 1039.48 259.105C1047.8 252.468 1052.33 248.235 1059.94 240.947C1058.15 245.629 1041.88 259.276 1037.39 262.284C1033.84 264.649 1030.08 266.689 1026.17 268.38C1023.08 269.744 1016.84 271.636 1014.97 273.793L1014.87 274.127L1014.27 274.346L1015.24 274.145L1015.47 275.032C1013.05 277.226 1013.74 274.79 1011.37 277.343C1012.92 277.373 1014.02 277.455 1015.57 277.627L1015.94 278.022C1012.61 281.874 1009.64 279.614 1007.06 280.4C1000.31 282.459 993.574 287.591 986.255 288.099C980.807 288.375 970.673 290.072 966.148 286.603C963.137 287.876 943.779 283.897 939.863 282.616C936.387 281.493 933.064 279.941 929.972 277.997C902.146 260.612 889.702 223.259 901.418 191.917C902.315 189.516 907.053 184.204 908.746 181.536C908.67 179.838 908.377 178.522 909.358 177.201Z"/><path fill="#983503" d="M1039.48 259.105C1047.8 252.468 1052.33 248.235 1059.94 240.947C1058.15 245.629 1041.88 259.276 1037.39 262.284C1033.84 264.649 1030.08 266.689 1026.17 268.38C1023.08 269.744 1016.84 271.636 1014.97 273.793L1014.87 274.127L1014.27 274.346L1015.24 274.145L1015.47 275.032C1013.05 277.226 1013.74 274.79 1011.37 277.343C1012.92 277.373 1014.02 277.455 1015.57 277.627L1015.94 278.022C1012.61 281.874 1009.64 279.614 1007.06 280.4C1000.31 282.459 993.574 287.591 986.255 288.099C980.807 288.375 970.673 290.072 966.148 286.603C966.456 286.419 976.245 283.317 976.944 283.153L977.628 282.997L975.104 282.962C976.733 282.132 987.525 282.067 991.992 279.846C1001.86 274.94 1014 272.298 1023.8 267.294C1028.78 264.746 1034.89 260.68 1039.48 259.105Z"/><path fill="#171717" d="M880.077 84.2706L880.98 83.7585L883.32 74.2267C891.263 75.9867 894.876 81.1818 900.521 87.1274C901.761 88.4329 901.021 90.8458 900.633 92.5522L901.262 94.5308C898.686 107.119 893.553 124.017 890.346 137.149L855.484 275.762C853.373 284.305 844.994 312.603 845.285 319.667C847.239 322.923 848.112 324.711 849.635 328.207C845.653 330.814 839.734 357.671 837.536 363.3C836.308 366.443 831.953 381.487 832.398 384.298L833.302 385.419L833.576 386.446C832.56 386.662 830.591 387.021 829.671 387.293C826.873 389.402 819.77 423.006 818.321 428.838L776.936 592.292C772.749 608.38 768.645 624.489 764.625 640.62C763.024 646.989 758.667 660.427 759.237 666.226C769.162 677.138 772.899 687.859 781.762 699.178C782.007 699.491 792.038 699.805 793.31 699.922C787.625 700.19 763.879 698.531 761.061 701.944C756.499 707.468 737.916 771.497 734.546 784.064C732.288 792.483 729.705 806.911 725.633 814.233L612.17 814.304L580.848 814.323C573.858 814.325 565.869 814.553 559.014 813.544C550.995 812.364 542.747 800.582 540.629 793.415C542.553 792.569 552.25 793.081 554.957 793.123C563.64 793.264 572.324 793.321 581.008 793.293L675.579 793.241C680.505 793.286 701.213 791.969 703.914 793.991C704.014 794.066 704.105 794.152 704.201 794.233L705.131 794.116C706.506 791.517 708.642 781.578 709.638 778.132C714.315 761.94 717.842 745.871 721.664 729.536C731.3 688.064 741.201 646.654 751.367 605.309L846.625 218.063C855.266 182.237 865.87 144.766 873.782 109.227L880.077 84.2706Z"/><defs><linearGradient id="gradient_8" gradientUnits="userSpaceOnUse" x1="788.87341" y1="72.192978" x2="811.48132" y2="-1.1422164"><stop offset="0" stop-color="#616061"/><stop offset="1" stop-color="#807E7F"/></linearGradient></defs><path fill="url(#gradient_8)" d="M710.091 22.0436L839.681 22.1812L872.299 22.1804C877.709 22.1812 889.088 21.9812 893.947 22.9834C902.624 31.1341 901.692 50.3616 913.022 54.7305C913.976 55.0984 918.971 55.0422 920.249 55.0409L920.328 55.5188C917.969 55.5068 914.945 55.367 913.368 57.2984C906.833 65.3038 904.153 84.4909 901.262 94.5308L900.633 92.5522C901.021 90.8458 901.761 88.4329 900.521 87.1274C894.876 81.1818 891.263 75.9867 883.32 74.2267L880.98 83.7585L880.077 84.2706L873.782 109.227C871.904 105.337 875.745 104.6 874.595 99.2266L872.837 98.2549L872.286 99.7016L871.763 99.5086C872.458 94.9875 875.3 86.5548 876.482 81.606C879.944 67.1129 884.298 52.7462 887.631 38.2188C888.342 35.1242 890.303 30.9781 891.161 27.6852C889.585 26.7596 888.351 27.054 886.478 27.1545C878.933 26.5923 862.674 27.2013 854.271 27.2241L787.241 27.3487L736.773 27.035C732.885 26.9907 718.559 26.3787 715.531 26.5962C713.659 27.421 711.25 27.6622 710.016 25.7899C709.905 23.9345 709.626 24.6883 710.619 23.3738L710.091 22.0436Z"/><path fill="#525151" d="M893.947 22.9834C902.624 31.1341 901.692 50.3616 913.022 54.7305C913.976 55.0984 918.971 55.0422 920.249 55.0409L920.328 55.5188C917.969 55.5068 914.945 55.367 913.368 57.2984C906.833 65.3038 904.153 84.4909 901.262 94.5308L900.633 92.5522C901.021 90.8458 901.761 88.4329 900.521 87.1274C894.876 81.1818 891.263 75.9867 883.32 74.2267L880.98 83.7585L880.077 84.2706C879.768 82.3769 885.143 62.9038 886.005 59.7218C889.385 47.2417 892.217 35.8791 893.947 22.9834Z"/><path fill="#525151" d="M715.531 26.5962C718.559 26.3787 732.885 26.9907 736.773 27.035L787.241 27.3487L854.271 27.2241C862.674 27.2013 878.933 26.5923 886.478 27.1545C882.129 29.2824 874.852 27.193 870.842 27.8127C868.715 28.1413 862.392 32.192 858.699 32.5616C850.612 33.371 841.644 31.921 833.455 31.2826C827.305 30.8032 822.716 32.8747 817.867 32.5654C810.599 31.6001 802.22 31.5425 795.081 30.0987C774.359 25.9079 751.796 29.0353 730.583 28.0924C726.252 27.8999 719.084 28.973 715.531 26.5962Z"/><defs><linearGradient id="gradient_9" gradientUnits="userSpaceOnUse" x1="626.99451" y1="379.69751" x2="529.5755" y2="339.39584"><stop offset="0" stop-color="#0D0B0C"/><stop offset="1" stop-color="#272827"/></linearGradient></defs><path fill="url(#gradient_9)" d="M686.255 210.064C685.135 216.031 667.457 286.206 666.823 287.097L664.761 287.256L664.697 284.737L663.894 284.342C660.575 286.152 631.193 330.551 625.994 337.57C612.776 355.407 599.37 373.104 585.779 390.659C574.392 405.344 506.556 490.109 503.984 499.365C503.748 500.212 503.617 501.081 503.509 501.952C501.654 503.713 464.291 503.732 461.762 501.775C463.882 496.096 489.331 463.912 494.563 456.983C545.327 390.186 596.79 323.924 648.942 258.206C656.752 248.297 664.509 238.347 672.214 228.357C676.612 222.58 681.494 215.267 686.255 210.064Z"/></svg>